<?xml version="1.0" encoding="utf-8"?>
<!-- Generator: Adobe Illustrator 15.0.2, SVG Export Plug-In . SVG Version: 6.00 Build 0)  -->
<!DOCTYPE svg PUBLIC "-//W3C//DTD SVG 1.1//EN" "http://www.w3.org/Graphics/SVG/1.1/DTD/svg11.dtd">
<svg version="1.1" id="Calque_1" xmlns="http://www.w3.org/2000/svg" xmlns:xlink="http://www.w3.org/1999/xlink" x="0px" y="0px"
	 width="63.992px" height="63.999px" viewBox="0.55 0.012 63.992 63.999" enable-background="new 0.55 0.012 63.992 63.999"
	 xml:space="preserve">
<path fill="#646D73" d="M61.472,11.249c-1.002-1.002-2.102-1.759-3.307-2.268c0.531,1.25,0.799,2.616,0.799,4.091v34.891
	c0,2.889-1.025,5.354-3.066,7.402c-2.051,2.043-4.517,3.062-7.403,3.062H13.607c-1.476,0-2.837-0.262-4.087-0.794
	c0.509,1.205,1.266,2.306,2.268,3.306c2.048,2.047,4.515,3.071,7.396,3.071h34.889c2.883,0,5.353-1.024,7.398-3.071
	c2.053-2.045,3.07-4.515,3.07-7.397V18.646C64.543,15.765,63.524,13.302,61.472,11.249z M47.073,30.257v-4.656
	c0-0.628-0.23-1.174-0.692-1.634c-0.454-0.458-1.002-0.69-1.632-0.69h-11.63v-11.63c0-0.63-0.229-1.174-0.69-1.636
	c-0.46-0.46-1.01-0.692-1.638-0.692h-4.652c-0.63,0-1.174,0.232-1.635,0.692c-0.46,0.458-0.688,1.002-0.688,1.636v11.63H12.181
	c-0.63,0-1.174,0.232-1.635,0.69c-0.456,0.46-0.689,1.006-0.689,1.634v4.652c0,0.632,0.233,1.178,0.693,1.637
	c0.457,0.462,1.001,0.69,1.635,0.69H23.82v11.631c0,0.626,0.229,1.178,0.688,1.635c0.461,0.459,1.005,0.697,1.635,0.697h4.652
	c0.632,0,1.178-0.238,1.638-0.697c0.462-0.457,0.69-1.009,0.69-1.635V32.58h11.63c0.626,0,1.178-0.229,1.628-0.69
	C46.843,31.431,47.073,30.885,47.073,30.257z M56.373,10.48v34.893c0,2.887-1.024,5.348-3.067,7.395
	c-2.05,2.051-4.515,3.067-7.397,3.067H11.019c-2.885,0-5.348-1.019-7.396-3.067C1.577,50.721,0.55,48.26,0.55,45.373V10.48
	c0-2.884,1.027-5.345,3.073-7.397c2.048-2.046,4.511-3.071,7.396-3.071h34.893c2.884,0,5.349,1.021,7.397,3.071
	C55.356,5.136,56.373,7.601,56.373,10.48z"/>
</svg>
