<svg xmlns="http://www.w3.org/2000/svg" width="17" height="16" viewBox="0 0 17 16"><path fill="#646D73" d="M8.592 0c-4.42 0-8 3.58-8 8s3.58 8 8 8 8-3.58 8-8-3.58-8-8-8zm0 14.72c-3.71 0-6.72-3.01-6.72-6.72s3.01-6.72 6.72-6.72 6.72 3.01 6.72 6.72-3.01 6.72-6.72 6.72zm.47-3.37c-.17.19-.38.311-.471.28-.1-.03-.15-.13-.13-.229l1.34-4.432c.11-.56-.19-1.069-.83-1.14-.68 0-1.67.72-2.27 1.62 0 .11-.02.38 0 .54l.81-.96c.16-.19.35-.311.45-.28.1.04.15.15.12.26l-1.33 4.4c-.15.521.14 1.021.84 1.14 1.04 0 1.65-.699 2.26-1.609 0-.11.03-.391.01-.551l-.799.961zm.609-7.99c-.51 0-.92.37-.92.92 0 .54.41.91.92.91.511 0 .92-.37.92-.91.001-.55-.409-.92-.92-.92z"/></svg>