<svg xmlns="http://www.w3.org/2000/svg" width="17" height="16" viewBox="0 0 17 16"><path fill="#646D73" d="M15.592 4h-1.52v3.02h2.02v7.98h-11v-1.07h-1v.57c0 .83.67 1.5 1.5 1.5h10c.83 0 1.5-.67 1.5-1.5v-9c0-.83-.67-1.5-1.5-1.5zM11.592 1h-10c-.83 0-1.5.67-1.5 1.5v9c0 .83.67 1.5 1.5 1.5h10c.83 0 1.5-.67 1.5-1.5v-9c0-.83-.67-1.5-1.5-1.5zm-5.02 1c.28 0 .5.22.5.5s-.22.5-.5.5c-.27 0-.5-.22-.5-.5s.23-.5.5-.5zm-1.98 0c.28 0 .5.22.5.5s-.22.5-.5.5-.5-.22-.5-.5.22-.5.5-.5zm-2.03 0c.27 0 .5.22.5.5s-.23.5-.5.5c-.28 0-.5-.22-.5-.5s.22-.5.5-.5zm9.53 10h-11v-7.98h11v7.98z"/></svg>