<svg xmlns="http://www.w3.org/2000/svg" width="26" height="26" viewBox="0 0 26 26"><path fill-rule="evenodd" clip-rule="evenodd" fill="#fff" d="M13.35 12.08v-.61h-.01v.63l.44-.44-.43.42zm.54.52l-.02.01h.64v-.01h-.62zm-1.71-.92h-.01l.43.43-.42-.43zm.42-.19v.62l.01.02v-.64h-.01zm-.57 1.11h-.54v.01h.56l-.02-.01zm2.5.74h-.7l.49.49v-.01l-.47-.47h.68v-.01zm-1.19.55v.64h.01v-.62l-.01-.02zm-1.68-.1l.45-.45h-.64v.01h.62l-.43.43v.01zm.94.11v.61h.01v-.63l-.01.02zM24.82 11.82c-.4 0-1.36.44-2.04.79h-1.55c-.1-2-.9-3.82-2.17-5.19l1.02-1.01.01-.01c.73-.24 1.81-.63 2.1-.93.46-.46.46-1.2 0-1.66s-1.2-.46-1.66 0c-.29.28-.65 1.26-.89 1.99l-1.1 1.1c-1.38-1.26-3.19-2.05-5.2-2.13v-1.45c.35-.69.84-1.73.84-2.14 0-.65-.53-1.18-1.18-1.18s-1.18.53-1.18 1.18c0 .4.44 1.36.79 2.04v1.55c-2 .1-3.82.9-5.19 2.17l-1.02-1.02c-.24-.73-.63-1.82-.93-2.11-.46-.46-1.2-.46-1.66 0s-.46 1.2 0 1.66c.28.29 1.26.65 1.99.89l1.1 1.1c-1.25 1.37-2.04 3.17-2.13 5.15h-1.55c-.68-.35-1.64-.79-2.04-.79-.65 0-1.18.53-1.18 1.18s.53 1.18 1.18 1.18c.41 0 1.45-.49 2.14-.84h1.45c.08 2.01.87 3.82 2.13 5.2l-1.08 1.09c-.73.25-1.73.61-2.01.9-.46.46-.46 1.2 0 1.66s1.2.46 1.66 0c.3-.29.69-1.37.93-2.1l1.02-1.02c1.37 1.26 3.19 2.06 5.19 2.16v1.55c-.35.68-.79 1.64-.79 2.04 0 .65.53 1.18 1.18 1.18s1.18-.53 1.18-1.18c0-.41-.49-1.45-.84-2.14v-1.45c2.01-.08 3.82-.87 5.2-2.13l1.09 1.08c.25.73.61 1.73.9 2.01.46.46 1.2.46 1.66 0s.46-1.2 0-1.66c-.29-.3-1.37-.69-2.1-.93l-1.02-1.02c1.27-1.39 2.08-3.22 2.16-5.24h1.45c.69.35 1.73.84 2.14.84.65 0 1.18-.53 1.18-1.18s-.53-1.18-1.18-1.18zm-16.8-3.24l2.78 2.78c-.27.35-.46.78-.52 1.25h-3.93c.08-1.55.69-2.96 1.67-4.03zm-1.67 4.76h3.92c.06.49.25.95.53 1.31l-2.78 2.78c-.99-1.09-1.6-2.52-1.67-4.09zm6.26 6.31c-1.57-.08-2.99-.7-4.07-1.7l2.78-2.78c.37.29.81.48 1.29.55v3.93zm-1.12-7.05c.03-.14.09-.27.17-.38l.37.38.02.01h-.56v-.01zm-.02.74h.64l-.45.45v-.01c-.09-.12-.15-.27-.19-.43v-.01zm1.14 1.17h-.01c-.16-.03-.31-.1-.42-.19l.42-.42.01-.02v.63zm0-2.38l-.01-.02-.43-.43h.01c.11-.09.26-.16.42-.19h.01v.64zm0-1.85c-.49.07-.93.27-1.3.55l-2.77-2.78c1.08-1 2.5-1.62 4.07-1.7v3.93zm.73-3.93c1.57.07 2.99.68 4.08 1.67l-2.78 2.78c-.36-.28-.82-.47-1.3-.53v-3.92zm1.17 6.25v.01h-.64l.02-.01.43-.42c.09.11.16.26.19.42zm.02.74v.01c-.04.17-.11.34-.21.47v.01l-.49-.49h.7zm-1.19-1.87h.01c.16.04.31.1.43.19l-.44.44v-.63zm0 2.42l.01.02.43.43c-.12.09-.27.15-.43.19h-.01v-.64zm0 5.76v-3.92c.49-.06.95-.25 1.31-.53l2.78 2.78c-1.09.99-2.52 1.6-4.09 1.67zm4.61-2.19l-2.78-2.78c.3-.37.5-.84.56-1.34h3.92c-.07 1.58-.69 3.03-1.7 4.12zm-2.23-4.85c-.07-.49-.27-.93-.55-1.3l2.78-2.77c1 1.08 1.62 2.5 1.7 4.07h-3.93zM13.35 12.08v-.61h-.01v.63l.44-.44-.43.42zm.54.52l-.02.01h.64v-.01h-.62zm-1.71-.92h-.01l.43.43-.42-.43zm.42-.19v.62l.01.02v-.64h-.01zm-.57 1.11h-.54v.01h.56l-.02-.01zm2.5.74h-.7l.49.49v-.01l-.47-.47h.68v-.01zm-1.19.55v.64h.01v-.62l-.01-.02zm-1.68-.1l.45-.45h-.64v.01h.62l-.43.43v.01zm.94.11v.61h.01v-.63l-.01.02zM13.35 11.44v.03c.16.04.31.1.43.19l.03-.03c-.14-.09-.29-.15-.46-.19zm1 .71l-.03.02v.01c.09.11.16.26.19.42h.03c-.03-.17-.1-.32-.19-.45zm-2.2-.5l.02.03h.01c.11-.09.26-.16.42-.19v-.03c-.17.03-.32.1-.45.19zm-.52.54c-.08.13-.14.26-.17.41h.03c.03-.14.09-.27.17-.38l-.03-.03zm2.9 1.16c-.04.17-.11.34-.21.47v.01l.03.02c.1-.15.17-.32.21-.5h-.03zm-.75.99c-.12.09-.27.15-.43.19v.03c.17-.04.32-.1.46-.19l-.03-.03zm-2.31-.99h-.03c.04.17.1.32.19.46l.03-.02v-.01c-.09-.12-.15-.27-.19-.43zm.71.97l-.03.03c.13.09.28.16.45.19v-.03c-.16-.03-.31-.1-.42-.19zM13.35 11.44v.03c.16.04.31.1.43.19l.03-.03c-.14-.09-.29-.15-.46-.19zm1 .71l-.03.02v.01c.09.11.16.26.19.42h.03c-.03-.17-.1-.32-.19-.45zm-2.2-.5l.02.03h.01c.11-.09.26-.16.42-.19v-.03c-.17.03-.32.1-.45.19zm-.52.54c-.08.13-.14.26-.17.41h.03c.03-.14.09-.27.17-.38l-.03-.03zm2.9 1.16c-.04.17-.11.34-.21.47v.01l.03.02c.1-.15.17-.32.21-.5h-.03zm-.75.99c-.12.09-.27.15-.43.19v.03c.17-.04.32-.1.46-.19l-.03-.03zm-2.31-.99h-.03c.04.17.1.32.19.46l.03-.02v-.01c-.09-.12-.15-.27-.19-.43zm.71.97l-.03.03c.13.09.28.16.45.19v-.03c-.16-.03-.31-.1-.42-.19z"/></svg>