<svg xmlns="http://www.w3.org/2000/svg" width="17" height="16" viewBox="0 0 17 16"><path fill="#646D73" d="M13.852 8.686v-1.34c0-.181-.065-.338-.199-.47-.133-.132-.289-.199-.471-.199h-3.345v-3.344c0-.181-.065-.338-.196-.47-.135-.133-.291-.199-.473-.199h-1.337c-.181 0-.337.066-.47.199-.133.132-.199.289-.199.47v3.345h-3.345c-.181 0-.338.066-.47.198-.132.132-.198.289-.198.47v1.337c0 .182.066.338.198.471.132.131.289.199.47.199h3.345v3.344c0 .182.065.336.199.471.133.131.289.198.47.198h1.337c.182 0 .338-.067.473-.198.131-.135.196-.289.196-.471v-3.343h3.345c.182 0 .338-.066.471-.197.131-.136.199-.292.199-.471zm2.673-5.687v10.033c0 .829-.295 1.536-.883 2.126-.592.59-1.3.884-2.127.884h-10.032c-.829 0-1.538-.295-2.127-.885-.588-.589-.883-1.298-.883-2.126v-10.032c0-.829.295-1.538.883-2.126.589-.588 1.298-.883 2.127-.883h10.033c.828 0 1.536.294 2.127.883.587.588.882 1.296.882 2.126z"/></svg>