<svg xmlns="http://www.w3.org/2000/svg" width="26.021" height="35.036" viewBox="0 0 26.021 35.036"><path fill="#fff" d="M22.991 14.032v-4.61c0-5.535-4.382-9.422-9.918-9.422s-10.085 3.887-10.085 9.423v4.61c-1.845-.001-2.988 1.34-2.988 3.185v7.796c0 5.536 4.196 10.023 9.732 10.023h6.682c5.536 0 9.607-4.487 9.607-10.023v-7.796c0-1.846-1.186-3.186-3.03-3.186zm-18.018-4.609c0-4.305 3.795-7.383 8.1-7.383s7.913 3.078 7.913 7.383v4.61h-2.975v-4.608c0-3.076-1.862-4.542-4.938-4.542s-5.063 1.466-5.063 4.542v4.608h-3.037v-4.61zm12.026 0v4.61h-7.991v-4.609999999999999c0-2.46 1.604-3.428 4.064-3.428s3.927.967 3.927 3.428zm6.991 11.136v4.455c0 4.298-3.279 7.686-7.576 7.686h-6.682c-4.297 0-7.727-3.389-7.727-7.686v-7.8629999999999995c0-.615.499-1.114 1.114-1.114h19.757c.614 0 1.114.499 1.114 1.114v3.408zM12.979 20.371c-1.229 0-2.227.997-2.227 2.227 0 .676.371 1.96.743 2.976.303.826.684 1.477 1.484 1.477.871 0 1.182-.644 1.486-1.466.376-1.018.742-2.309.742-2.987 0-1.23-.999-2.227-2.228-2.227z"/></svg>