<svg xmlns="http://www.w3.org/2000/svg" width="17" height="16" viewBox="0 0 17 16"><path fill="#646D73" d="M15.592 1h-14c-.83 0-1.5.67-1.5 1.5v12c0 .83.67 1.5 1.5 1.5h14c.83 0 1.5-.67 1.5-1.5v-12c0-.83-.67-1.5-1.5-1.5zm-9.02 1c.28 0 .5.22.5.5s-.22.5-.5.5c-.27 0-.5-.22-.5-.5s.23-.5.5-.5zm-1.98 0c.28 0 .5.22.5.5s-.22.5-.5.5-.5-.22-.5-.5.22-.5.5-.5zm-2.03 0c.27 0 .5.22.5.5s-.23.5-.5.5c-.28 0-.5-.22-.5-.5s.22-.5.5-.5zm13.53 13h-15v-10.98h15v10.98zm-8.01-2.03h1.01v-3h2.99v-.98h-2.99v-2.99h-1.01v2.99h-2.97v.98h2.97v3z"/></svg>