<svg xmlns="http://www.w3.org/2000/svg" width="26" height="26" viewBox="0 0 26 26"><path fill="#fff" d="M7.253 19.54c0-.218-.079-.405-.238-.563-.159-.16-.347-.238-.564-.238-.217 0-.406.078-.564.238-.159.158-.238.346-.238.563s.079.405.238.564c.159.158.347.238.564.238.217 0 .405-.08.564-.238.16-.159.238-.346.238-.564zm8.074-5.266l-8.549 8.551c-.31.31-.686.463-1.128.463-.435 0-.815-.153-1.141-.463l-1.33-1.354c-.317-.301-.476-.676-.476-1.128 0-.442.159-.822.476-1.141l8.538-8.538c.326.819.804 1.544 1.436 2.175.63.632 1.355 1.11 2.174 1.435zm7.948-5.453c0 .326-.097.77-.288 1.33-.394 1.12-1.081 2.028-2.062 2.726-.981.698-2.062 1.047-3.24 1.047-1.547 0-2.869-.549-3.969-1.648-1.099-1.099-1.648-2.421-1.648-3.968s.549-2.869 1.648-3.967c1.1-1.099 2.422-1.649 3.969-1.649.484 0 .992.069 1.522.207.531.138.98.332 1.349.583.133.092.2.208.2.351s-.067.259-.2.351l-3.674 2.119v2.807l2.419 1.341.991-.607s1.184-.719 1.698-1.016c.514-.297.809-.445.885-.445.125 0 .222.042.294.125.07.084.106.188.106.313z"/></svg>