<?xml version="1.0" encoding="utf-8"?>
<!-- Generator: Adobe Illustrator 15.0.2, SVG Export Plug-In . SVG Version: 6.00 Build 0)  -->
<!DOCTYPE svg PUBLIC "-//W3C//DTD SVG 1.1//EN" "http://www.w3.org/Graphics/SVG/1.1/DTD/svg11.dtd">
<svg version="1.1" id="Calque_1" xmlns="http://www.w3.org/2000/svg" xmlns:xlink="http://www.w3.org/1999/xlink" x="0px" y="0px"
	 width="26px" height="26px" viewBox="0 0 26 26" enable-background="new 0 0 26 26" xml:space="preserve">
<path fill-rule="evenodd" clip-rule="evenodd" fill="#FFFFFF" d="M13.35,12.08v-0.61h-0.01v0.63l0.44-0.44L13.35,12.08z M13.89,12.6
	l-0.02,0.01h0.64V12.6H13.89z M12.18,11.68h-0.01l0.43,0.43L12.18,11.68z M12.6,11.49v0.62l0.01,0.02v-0.64H12.6z M12.03,12.6h-0.54
	v0.01h0.56L12.03,12.6z M14.53,13.34h-0.7l0.49,0.49v-0.01l-0.47-0.47h0.68V13.34z M13.34,13.89v0.64h0.01v-0.62L13.34,13.89z
	 M11.66,13.79l0.45-0.45h-0.64v0.01h0.62l-0.43,0.43V13.79z M12.6,13.9v0.61h0.01v-0.63L12.6,13.9z"/>
<path fill-rule="evenodd" clip-rule="evenodd" fill="#FFFFFF" d="M24.82,11.82c-0.4,0-1.36,0.44-2.04,0.79h-1.55
	c-0.1-2-0.9-3.82-2.17-5.19l1.02-1.01c0,0,0-0.01,0.01-0.01c0.73-0.24,1.81-0.63,2.1-0.93c0.46-0.46,0.46-1.2,0-1.66
	s-1.2-0.46-1.66,0c-0.29,0.28-0.65,1.26-0.89,1.99l-1.1,1.1c-1.38-1.26-3.19-2.05-5.2-2.13V3.32c0.35-0.69,0.84-1.73,0.84-2.14
	C14.18,0.53,13.65,0,13,0s-1.18,0.53-1.18,1.18c0,0.4,0.44,1.36,0.79,2.04v1.55c-2,0.1-3.82,0.9-5.19,2.17L6.4,5.92
	C6.16,5.19,5.77,4.1,5.47,3.81c-0.46-0.46-1.2-0.46-1.66,0s-0.46,1.2,0,1.66C4.09,5.76,5.07,6.12,5.8,6.36l1.1,1.1
	c-1.25,1.37-2.04,3.17-2.13,5.15H3.22c-0.68-0.35-1.64-0.79-2.04-0.79C0.53,11.82,0,12.35,0,13s0.53,1.18,1.18,1.18
	c0.41,0,1.45-0.49,2.14-0.84h1.45c0.08,2.01,0.87,3.82,2.13,5.2l-1.08,1.09c-0.73,0.25-1.73,0.61-2.01,0.9
	c-0.46,0.46-0.46,1.2,0,1.66s1.2,0.46,1.66,0c0.3-0.29,0.69-1.37,0.93-2.1l1.02-1.02c1.37,1.26,3.19,2.06,5.19,2.16v1.55
	c-0.35,0.68-0.79,1.64-0.79,2.04c0,0.65,0.53,1.18,1.18,1.18s1.18-0.53,1.18-1.18c0-0.41-0.49-1.45-0.84-2.14v-1.45
	c2.01-0.08,3.82-0.87,5.2-2.13l1.09,1.08c0.25,0.73,0.61,1.73,0.9,2.01c0.46,0.46,1.2,0.46,1.66,0s0.46-1.2,0-1.66
	c-0.29-0.3-1.37-0.69-2.1-0.93l-1.02-1.02c1.27-1.39,2.08-3.22,2.16-5.24h1.45c0.69,0.35,1.73,0.84,2.14,0.84
	c0.65,0,1.18-0.53,1.18-1.18S25.47,11.82,24.82,11.82z M8.02,8.58l2.78,2.78c-0.27,0.35-0.46,0.78-0.52,1.25H6.35
	C6.43,11.06,7.04,9.65,8.02,8.58z M6.35,13.34h3.92c0.06,0.49,0.25,0.95,0.53,1.31l-2.78,2.78C7.03,16.34,6.42,14.91,6.35,13.34z
	 M12.61,19.65c-1.57-0.08-2.99-0.7-4.07-1.7l2.78-2.78c0.37,0.29,0.81,0.48,1.29,0.55V19.65z M11.49,12.6
	c0.03-0.14,0.09-0.27,0.17-0.38l0.37,0.38l0.02,0.01h-0.56V12.6z M11.47,13.34h0.64l-0.45,0.45v-0.01
	c-0.09-0.12-0.15-0.27-0.19-0.43V13.34z M12.61,14.51H12.6c-0.16-0.03-0.31-0.1-0.42-0.19l0.42-0.42l0.01-0.02V14.51z M12.61,12.13
	l-0.01-0.02l-0.43-0.43h0.01c0.11-0.09,0.26-0.16,0.42-0.19h0.01V12.13z M12.61,10.28c-0.49,0.07-0.93,0.27-1.3,0.55L8.54,8.05
	c1.08-1,2.5-1.62,4.07-1.7V10.28z M13.34,6.35c1.57,0.07,2.99,0.68,4.08,1.67l-2.78,2.78c-0.36-0.28-0.82-0.47-1.3-0.53V6.35z
	 M14.51,12.6v0.01h-0.64l0.02-0.01l0.43-0.42C14.41,12.29,14.48,12.44,14.51,12.6z M14.53,13.34v0.01
	c-0.04,0.17-0.11,0.34-0.21,0.47v0.01l-0.49-0.49H14.53z M13.34,11.47h0.01c0.16,0.04,0.31,0.1,0.43,0.19l-0.44,0.44V11.47z
	 M13.34,13.89l0.01,0.02l0.43,0.43c-0.12,0.09-0.27,0.15-0.43,0.19h-0.01V13.89z M13.34,19.65v-3.92c0.49-0.06,0.95-0.25,1.31-0.53
	l2.78,2.78C16.34,18.97,14.91,19.58,13.34,19.65z M17.95,17.46l-2.78-2.78c0.3-0.37,0.5-0.84,0.56-1.34h3.92
	C19.58,14.92,18.96,16.37,17.95,17.46z M15.72,12.61c-0.07-0.49-0.27-0.93-0.55-1.3l2.78-2.77c1,1.08,1.62,2.5,1.7,4.07H15.72z"/>
<path fill-rule="evenodd" clip-rule="evenodd" fill="#FFFFFF" d="M13.35,12.08v-0.61h-0.01v0.63l0.44-0.44L13.35,12.08z M13.89,12.6
	l-0.02,0.01h0.64V12.6H13.89z M12.18,11.68h-0.01l0.43,0.43L12.18,11.68z M12.6,11.49v0.62l0.01,0.02v-0.64H12.6z M12.03,12.6h-0.54
	v0.01h0.56L12.03,12.6z M14.53,13.34h-0.7l0.49,0.49v-0.01l-0.47-0.47h0.68V13.34z M13.34,13.89v0.64h0.01v-0.62L13.34,13.89z
	 M11.66,13.79l0.45-0.45h-0.64v0.01h0.62l-0.43,0.43V13.79z M12.6,13.9v0.61h0.01v-0.63L12.6,13.9z"/>
<path fill-rule="evenodd" clip-rule="evenodd" fill="#FFFFFF" d="M13.35,11.44v0.03c0.16,0.04,0.31,0.1,0.43,0.19l0.03-0.03
	C13.67,11.54,13.52,11.48,13.35,11.44z M14.35,12.15l-0.03,0.02v0.01c0.09,0.11,0.16,0.26,0.19,0.42h0.03
	C14.51,12.43,14.44,12.28,14.35,12.15z M12.15,11.65l0.02,0.03h0.01c0.11-0.09,0.26-0.16,0.42-0.19v-0.03
	C12.43,11.49,12.28,11.56,12.15,11.65z M11.63,12.19c-0.08,0.13-0.14,0.26-0.17,0.41h0.03c0.03-0.14,0.09-0.27,0.17-0.38
	L11.63,12.19z M14.53,13.35c-0.04,0.17-0.11,0.34-0.21,0.47v0.01l0.03,0.02c0.1-0.15,0.17-0.32,0.21-0.5H14.53z M13.78,14.34
	c-0.12,0.09-0.27,0.15-0.43,0.19v0.03c0.17-0.04,0.32-0.1,0.46-0.19L13.78,14.34z M11.47,13.35h-0.03c0.04,0.17,0.1,0.32,0.19,0.46
	l0.03-0.02v-0.01C11.57,13.66,11.51,13.51,11.47,13.35z M12.18,14.32l-0.03,0.03c0.13,0.09,0.28,0.16,0.45,0.19v-0.03
	C12.44,14.48,12.29,14.41,12.18,14.32z"/>
<path fill-rule="evenodd" clip-rule="evenodd" fill="#FFFFFF" d="M13.35,11.44v0.03c0.16,0.04,0.31,0.1,0.43,0.19l0.03-0.03
	C13.67,11.54,13.52,11.48,13.35,11.44z M14.35,12.15l-0.03,0.02v0.01c0.09,0.11,0.16,0.26,0.19,0.42h0.03
	C14.51,12.43,14.44,12.28,14.35,12.15z M12.15,11.65l0.02,0.03h0.01c0.11-0.09,0.26-0.16,0.42-0.19v-0.03
	C12.43,11.49,12.28,11.56,12.15,11.65z M11.63,12.19c-0.08,0.13-0.14,0.26-0.17,0.41h0.03c0.03-0.14,0.09-0.27,0.17-0.38
	L11.63,12.19z M14.53,13.35c-0.04,0.17-0.11,0.34-0.21,0.47v0.01l0.03,0.02c0.1-0.15,0.17-0.32,0.21-0.5H14.53z M13.78,14.34
	c-0.12,0.09-0.27,0.15-0.43,0.19v0.03c0.17-0.04,0.32-0.1,0.46-0.19L13.78,14.34z M11.47,13.35h-0.03c0.04,0.17,0.1,0.32,0.19,0.46
	l0.03-0.02v-0.01C11.57,13.66,11.51,13.51,11.47,13.35z M12.18,14.32l-0.03,0.03c0.13,0.09,0.28,0.16,0.45,0.19v-0.03
	C12.44,14.48,12.29,14.41,12.18,14.32z"/>
</svg>
