<?xml version="1.0" encoding="utf-8"?>
<!-- Generator: Adobe Illustrator 15.0.2, SVG Export Plug-In . SVG Version: 6.00 Build 0)  -->
<!DOCTYPE svg PUBLIC "-//W3C//DTD SVG 1.1//EN" "http://www.w3.org/Graphics/SVG/1.1/DTD/svg11.dtd">
<svg version="1.1" id="delete" xmlns="http://www.w3.org/2000/svg" xmlns:xlink="http://www.w3.org/1999/xlink" x="0px" y="0px"
	 width="17px" height="16px" viewBox="0 0 17 16" enable-background="new 0 0 17 16" xml:space="preserve">
<path fill="#646D73" d="M13.542,1h-9.9c-1.13,0-2.05,0.81-2.05,1.92V3c0,1.1,0.92,1.92,2.05,1.92h0.24c-0.19,0.28-0.29,0.62-0.29,1
	V14c0,1.1,0.92,2,2.05,2h5.9c1.13,0,2.05-0.9,2.05-2V5.92c0-0.38-0.1-0.72-0.29-1h0.24c1.13,0,2.05-0.82,2.05-1.92V2.92
	C15.592,1.81,14.672,1,13.542,1z M12.592,14.98c0,0-0.01,0.02-0.05,0.02h-7.95L4.562,5h8.03V14.98z M14.592,4.06
	c0,0-0.01,0.02-0.05,0.02H2.592L2.642,2h11.95V4.06z"/>
<path fill="#646D73" d="M6.592,7v5.92h1V7H6.592z"/>
<path fill="#646D73" d="M9.592,7v5.92h1V7H9.592z"/>
</svg>
