<?xml version="1.0" encoding="utf-8"?>
<!-- Generator: Adobe Illustrator 15.0.2, SVG Export Plug-In . SVG Version: 6.00 Build 0)  -->
<!DOCTYPE svg PUBLIC "-//W3C//DTD SVG 1.1//EN" "http://www.w3.org/Graphics/SVG/1.1/DTD/svg11.dtd">
<svg version="1.1" id="project-new" xmlns="http://www.w3.org/2000/svg" xmlns:xlink="http://www.w3.org/1999/xlink" x="0px"
	 y="0px" width="17px" height="16px" viewBox="0 0 17 16" enable-background="new 0 0 17 16" xml:space="preserve">
<path fill="#646D73" d="M15.592,1h-14c-0.83,0-1.5,0.67-1.5,1.5v12c0,0.83,0.67,1.5,1.5,1.5h14c0.83,0,1.5-0.67,1.5-1.5v-12
	C17.092,1.67,16.422,1,15.592,1z M6.572,2c0.28,0,0.5,0.22,0.5,0.5S6.852,3,6.572,3c-0.27,0-0.5-0.22-0.5-0.5S6.302,2,6.572,2z
	 M4.592,2c0.28,0,0.5,0.22,0.5,0.5S4.872,3,4.592,3c-0.28,0-0.5-0.22-0.5-0.5S4.312,2,4.592,2z M2.562,2c0.27,0,0.5,0.22,0.5,0.5
	S2.832,3,2.562,3c-0.28,0-0.5-0.22-0.5-0.5S2.282,2,2.562,2z M16.092,15h-15V4.02h15V15z M8.082,12.97h1.01v-3h2.99V8.99h-2.99V6
	h-1.01v2.99h-2.97V9.97h2.97V12.97z"/>
</svg>
