<?xml version="1.0" encoding="utf-8"?>
<!-- Generator: Adobe Illustrator 15.0.2, SVG Export Plug-In . SVG Version: 6.00 Build 0)  -->
<!DOCTYPE svg PUBLIC "-//W3C//DTD SVG 1.1//EN" "http://www.w3.org/Graphics/SVG/1.1/DTD/svg11.dtd">
<svg version="1.1" id="project-duplicate" xmlns="http://www.w3.org/2000/svg" xmlns:xlink="http://www.w3.org/1999/xlink" x="0px"
	 y="0px" width="17px" height="16px" viewBox="0 0 17 16" enable-background="new 0 0 17 16" xml:space="preserve">
<path fill="#646D73" d="M15.592,4h-1.52v3.02h2.02V15h-11v-1.07h-1v0.57c0,0.83,0.67,1.5,1.5,1.5h10c0.83,0,1.5-0.67,1.5-1.5v-9
	C17.092,4.67,16.422,4,15.592,4z"/>
<path fill="#646D73" d="M11.592,1h-10c-0.83,0-1.5,0.67-1.5,1.5v9c0,0.83,0.67,1.5,1.5,1.5h10c0.83,0,1.5-0.67,1.5-1.5v-9
	C13.092,1.67,12.422,1,11.592,1z M6.572,2c0.28,0,0.5,0.22,0.5,0.5S6.852,3,6.572,3c-0.27,0-0.5-0.22-0.5-0.5S6.302,2,6.572,2z
	 M4.592,2c0.28,0,0.5,0.22,0.5,0.5S4.872,3,4.592,3c-0.28,0-0.5-0.22-0.5-0.5S4.312,2,4.592,2z M2.562,2c0.27,0,0.5,0.22,0.5,0.5
	S2.832,3,2.562,3c-0.28,0-0.5-0.22-0.5-0.5S2.282,2,2.562,2z M12.092,12h-11V4.02h11V12z"/>
</svg>
