<?xml version="1.0" encoding="utf-8"?>
<!-- Generator: Adobe Illustrator 15.0.2, SVG Export Plug-In . SVG Version: 6.00 Build 0)  -->
<!DOCTYPE svg PUBLIC "-//W3C//DTD SVG 1.1//EN" "http://www.w3.org/Graphics/SVG/1.1/DTD/svg11.dtd">
<svg version="1.1" id="infos" xmlns="http://www.w3.org/2000/svg" xmlns:xlink="http://www.w3.org/1999/xlink" x="0px" y="0px"
	 width="17px" height="16px" viewBox="0 0 17 16" enable-background="new 0 0 17 16" xml:space="preserve">
<path fill="#646D73" d="M8.592,0c-4.42,0-8,3.58-8,8s3.58,8,8,8s8-3.58,8-8S13.012,0,8.592,0z M8.592,14.72
	c-3.71,0-6.72-3.01-6.72-6.72s3.01-6.72,6.72-6.72S15.312,4.29,15.312,8S12.302,14.72,8.592,14.72z M9.062,11.35
	c-0.17,0.19-0.38,0.311-0.471,0.28c-0.1-0.03-0.15-0.13-0.13-0.229l1.34-4.432c0.11-0.56-0.19-1.069-0.83-1.14
	c-0.68,0-1.67,0.72-2.27,1.62c0,0.11-0.02,0.38,0,0.54l0.81-0.96c0.16-0.19,0.35-0.311,0.45-0.28c0.1,0.04,0.15,0.15,0.12,0.26
	l-1.33,4.4c-0.15,0.521,0.14,1.021,0.84,1.14c1.04,0,1.65-0.699,2.26-1.609c0-0.11,0.03-0.391,0.01-0.551L9.062,11.35z M9.671,3.36
	c-0.51,0-0.92,0.37-0.92,0.92c0,0.54,0.41,0.91,0.92,0.91c0.511,0,0.92-0.37,0.92-0.91C10.592,3.73,10.182,3.36,9.671,3.36z"/>
</svg>
